Land_normalized_Motion_pl04
version=1
nRows=14
nColumns=43
inDegrees=yes
endheader
time		pelvis_tilt		pelvis_list		pelvis_rotation		pelvis_tx		pelvis_ty		pelvis_tz		hip_flexion_r		hip_adduction_r		hip_rotation_r		knee_angle_r		ankle_angle_r		subtalar_angle_r		mtp_angle_r		hip_flexion_l		hip_adduction_l		hip_rotation_l		knee_angle_l		ankle_angle_l		subtalar_angle_l		mtp_angle_l		lumbar_extension		lumbar_bending		lumbar_rotation		neck_flexion		neck_lateral_bending		neck_rotation		arm_flex_r		arm_add_r		arm_rot_r		elbow_flex_r		pro_sup_r		wrist_flex_r		wrist_dev_r		hand_finger_flex_r		arm_flex_l		arm_add_l		arm_rot_l		elbow_flex_l		pro_sup_l		wrist_flex_l		wrist_dev_l		hand_finger_flex_l		
3.179621		-2.498068		1.303083		92.090299		-0.011261		0.412188		0.462341		97.813724		-5.533230		5.839834		-132.724486		9.026285		15.600797		30.973019		92.407112		-12.294664		2.152532		-133.514263		25.413460		12.764539		26.485711		-55.224265		-4.984377		1.400552		16.294485		8.884735		-6.746408		84.142777		-25.549065		16.522702		49.663307		119.737775		-9.665077		-16.329593		-37.970732		92.310301		-20.856737		31.798563		59.544037		139.572365		-24.732028		-15.027010		-27.284711		
3.182449		-2.520662		0.908531		91.987398		-0.010959		0.408724		0.462046		98.650970		-5.651705		5.992309		-133.108285		9.188674		16.346316		30.985187		93.097609		-12.722316		2.250094		-133.850476		25.792717		13.145918		26.541795		-54.951629		-5.130353		1.357919		16.802386		8.930090		-6.736935		86.088396		-24.995485		16.830212		48.922309		120.053464		-9.259793		-15.958652		-37.921667		94.355004		-20.100827		32.350418		58.635336		139.711793		-24.311510		-14.938499		-27.242299		
3.185278		-2.557588		0.735067		91.923371		-0.010815		0.405932		0.461580		99.128865		-5.845994		6.224516		-133.451175		9.416761		16.726236		30.996965		93.517169		-13.018944		2.356889		-134.182153		26.059383		13.457319		26.574381		-55.012769		-5.208168		1.305655		16.716937		9.054327		-6.744435		87.660508		-24.627830		16.845272		48.987267		120.302133		-9.132515		-15.901022		-37.968884		95.959775		-19.561752		32.424856		58.471061		139.704329		-24.306541		-14.911672		-27.342966		
3.188106		-2.816170		0.688700		92.183507		-0.010963		0.403130		0.461592		99.627614		-6.260919		6.599979		-133.916421		10.077718		18.391762		31.077754		93.600906		-13.057223		2.256144		-134.383402		27.099459		15.436443		26.707634		-55.090015		-5.344910		0.876483		17.247995		9.613604		-6.757151		90.060797		-24.191880		17.673935		47.356591		121.927801		-8.088025		-15.361295		-38.327666		98.976220		-18.617204		34.467561		56.211958		139.713586		-24.238012		-14.914402		-28.013572		
3.190934		-2.802190		0.306485		92.084139		-0.010663		0.400021		0.461099		100.292511		-6.333658		6.715183		-134.233071		10.251011		18.977147		31.102997		94.222129		-13.447710		2.358993		-134.703069		27.480409		15.662090		26.729150		-54.819779		-5.452367		0.819048		17.676586		9.599087		-6.787241		91.757833		-23.576525		17.800452		46.733928		122.277319		-7.656966		-15.066920		-38.354011		100.821389		-17.908874		34.882345		55.316171		139.717866		-23.791724		-14.772001		-27.980219		
3.193763		-2.789533		-0.049617		92.040446		-0.010352		0.397023		0.460492		100.908822		-6.421879		6.848763		-134.561651		10.649032		19.509813		31.120161		94.768631		-13.829955		2.438599		-134.994312		27.876855		15.964932		26.755879		-54.565023		-5.511954		0.734301		18.141821		9.567571		-6.766337		93.423768		-22.962614		17.962256		46.072272		122.534917		-7.270685		-14.775257		-38.302019		102.573779		-17.147617		35.152862		54.348524		139.741162		-23.348059		-14.554286		-27.903251		
3.196591		-2.818984		-0.102640		92.198110		-0.010582		0.394599		0.460206		101.172906		-6.770947		7.050502		-134.894898		11.008576		20.386919		31.170207		94.944295		-13.877619		2.552328		-135.236506		28.550018		16.881028		26.786220		-54.668271		-5.442654		0.543616		18.346253		9.783925		-6.833436		95.355615		-22.521634		18.385619		45.173529		123.183331		-6.563292		-14.586308		-38.313682		104.705014		-16.426666		36.030960		53.109931		139.774051		-22.958943		-14.496142		-28.011892		
3.199419		-2.843014		-0.293276		92.181593		-0.010468		0.392018		0.459595		101.584987		-6.917947		7.237147		-135.211396		11.459322		20.978129		31.209750		95.272248		-14.128069		2.656550		-135.526235		29.035713		17.439978		26.799572		-54.593884		-5.491690		0.421182		18.762999		9.777878		-6.813058		97.014399		-21.950583		18.543553		44.473002		123.574235		-6.106418		-14.394218		-38.350813		106.484347		-15.697362		36.442574		52.051591		139.702088		-22.675362		-14.303492		-28.098504		
3.202247		-2.839490		-0.339830		92.268004		-0.010581		0.389857		0.459258		101.778077		-7.206102		7.379795		-135.492267		11.681766		21.695677		31.284521		95.450794		-14.216866		2.758571		-135.774770		29.619932		18.202724		26.785053		-54.704917		-5.436765		0.283949		19.041734		9.856355		-6.872550		98.847425		-21.411285		18.805830		43.555641		124.109260		-5.454091		-14.281096		-38.464469		108.509217		-14.986261		37.265238		50.776711		139.571728		-22.382374		-14.219416		-28.315082		
3.205076		-2.836300		-0.649442		92.125372		-0.010264		0.387253		0.458405		102.292363		-7.215664		7.527205		-135.783013		12.100390		22.077583		31.317177		95.936580		-14.562262		2.861047		-136.108366		29.923742		18.405944		26.780344		-54.468745		-5.548621		0.232696		19.564483		9.704914		-6.798452		100.273917		-20.765126		18.815918		42.971345		124.264716		-5.180197		-14.082080		-38.497081		110.001242		-14.283622		37.363181		49.839403		139.439300		-22.098371		-13.945084		-28.343299		
3.207904		-2.791493		-0.858430		92.097883		-0.010257		0.384920		0.457800		102.657242		-7.374247		7.633297		-136.053578		12.280173		22.611224		31.361967		96.364049		-14.748571		2.946994		-136.404058		30.251301		18.685070		26.770044		-54.351898		-5.536632		0.203305		19.957386		9.653360		-6.777552		101.860299		-20.176969		18.937415		42.177727		124.485614		-4.804103		-13.897304		-38.520852		111.672605		-13.551062		37.755755		48.728765		139.340497		-21.689685		-13.763695		-28.375756		
3.210732		-2.721813		-0.813941		92.216580		-0.010492		0.383259		0.457447		102.684231		-7.674797		7.726035		-136.302283		12.479505		23.289161		31.459930		96.515840		-14.750614		3.060476		-136.637157		30.605349		19.157286		26.716954		-54.562555		-5.388879		0.088569		20.200381		9.754539		-6.805489		103.618221		-19.663594		19.235202		41.259314		124.916764		-4.253053		-13.962506		-38.686777		113.597497		-12.879737		38.519644		47.419894		139.057743		-21.360515		-13.759802		-28.660943		
3.213561		-2.677147		-1.028324		92.123150		-0.010405		0.381078		0.456668		103.048308		-7.721792		7.839841		-136.570372		12.715493		23.752650		31.514302		96.983302		-14.958206		3.143726		-136.966378		30.761597		19.201575		26.684564		-54.421131		-5.418749		0.098210		20.646388		9.642298		-6.725448		105.037102		-19.071251		19.253041		40.549384		125.065949		-4.022641		-13.858941		-38.781985		115.089602		-12.182557		38.740141		46.416616		138.837468		-20.987894		-13.585274		-28.740933		
3.216389		-2.600719		-1.172062		92.128148		-0.010459		0.379156		0.455976		103.294957		-7.843488		7.926133		-136.830485		12.874052		24.279939		31.582534		97.379234		-15.142987		3.223180		-137.232735		30.869773		19.227258		26.638678		-54.359300		-5.339635		0.072906		21.028387		9.590834		-6.668147		106.507440		-18.501205		19.347507		39.738427		125.267427		-3.752118		-13.818255		-38.903351		116.660469		-11.507755		39.102710		45.283210		138.589520		-20.545256		-13.469046		-28.855040		
